<svg fill="none" height="24" viewBox="0 0 24 24" width="24" xmlns="http://www.w3.org/2000/svg"><path clip-rule="evenodd" d="m1 0h1 16 1v1 3.08296c2.8377.47608 5 2.94404 5 5.91704 0 1.777-.7725 3.3736-2 4.4722v7.5278 1.8685l-1.5547-1.0364-2.4453-1.6302-2.4453 1.6302-1.5547 1.0364v-1.8685-2h-12-1v-1-18zm13 18v-3.5278c-1.2275-1.0986-2-2.6952-2-4.4722 0-2.973 2.1623-5.44096 5-5.91704v-2.08296h-14v16zm2-2.3414v4.4729l1.4453-.9636.5547-.3698.5547.3698 1.4453.9636v-4.4729c-.6256.2211-1.2987.3414-2 .3414s-1.3744-.1203-2-.3414zm2-9.6586c-2.2091 0-4 1.79086-4 4 0 2.2091 1.7909 4 4 4s4-1.7909 4-4c0-2.20914-1.7909-4-4-4zm-7 3.00001h-6v-2h6zm-6 2.99999h5v-2h-5zm2 3h-2v-2h2zm-2-8.99999h2v-2h-2z" fill="#000" fill-rule="evenodd"/></svg>