<svg xmlns="http://www.w3.org/2000/svg" xmlns:xlink="http://www.w3.org/1999/xlink" viewBox="0 0 824 515.02" id="mobile-testing-and-group-discussion"><defs><linearGradient id="a" x1="241.99" x2="290.94" y1="249.83" y2="249.83" gradientUnits="userSpaceOnUse"><stop offset="0" stop-color="#ecc4d7"></stop><stop offset=".42" stop-color="#efd4d1"></stop><stop offset="1" stop-color="#f2eac9"></stop></linearGradient><linearGradient id="f" x1="38.78" x2="797.14" y1="458.65" y2="458.65" gradientUnits="userSpaceOnUse"><stop offset="0" stop-color="#68e1fd"></stop><stop offset="1" stop-color="#69b9eb"></stop></linearGradient><linearGradient id="c" x1="434.52" x2="537.72" y1="430.88" y2="646.29" gradientUnits="userSpaceOnUse"><stop offset=".01" stop-color="#3c3a52" stop-opacity="0"></stop><stop offset=".86"></stop></linearGradient><linearGradient id="d" x1="417.45" x2="455.53" y1="350.77" y2="544.76" gradientUnits="userSpaceOnUse"><stop offset=".01" stop-color="#fff" stop-opacity="0"></stop><stop offset=".99" stop-color="#fff"></stop></linearGradient><linearGradient id="g" x1="499.42" x2="484.86" y1="289.47" y2="324.69" xlink:href="#a"></linearGradient><linearGradient id="e" x1="359.21" x2="338.43" y1="267.82" y2="270.33" gradientUnits="userSpaceOnUse"><stop offset=".01" stop-color="#fff" stop-opacity="0"></stop><stop offset=".33" stop-color="#fff" stop-opacity=".36"></stop><stop offset=".99" stop-color="#fff"></stop></linearGradient><linearGradient id="b" x1="380.75" x2="454.41" y1="215.4" y2="236.4" gradientUnits="userSpaceOnUse"><stop offset=".01" stop-color="#3c3a52" stop-opacity="0"></stop><stop offset="1"></stop></linearGradient><linearGradient id="h" x1="313.5" x2="312.39" y1="294.16" y2="277.07" xlink:href="#a"></linearGradient><linearGradient id="i" x1="268.49" x2="388.29" y1="309.68" y2="398.54" xlink:href="#b"></linearGradient><linearGradient id="j" x1="67.72" x2="756.26" y1="333.75" y2="333.75" xlink:href="#c"></linearGradient><linearGradient id="k" x1="372.07" x2="373.35" y1="349.61" y2="375.48" xlink:href="#d"></linearGradient><linearGradient id="l" x1="384.87" x2="385.46" y1="303.1" y2="376.03" xlink:href="#e"></linearGradient><linearGradient id="m" x1="202.08" x2="367.38" y1="377.95" y2="377.95" xlink:href="#d"></linearGradient><linearGradient id="n" x1="317.48" x2="280.16" y1="284.72" y2="384.74" xlink:href="#c"></linearGradient><linearGradient id="o" x1="603.44" x2="692.74" y1="334.65" y2="334.65" xlink:href="#c"></linearGradient><linearGradient id="p" x1="320.4" x2="371.76" y1="293.84" y2="293.84" xlink:href="#b"></linearGradient><linearGradient id="q" x1="321.84" x2="358.63" y1="282.33" y2="320.94" xlink:href="#b"></linearGradient><linearGradient id="r" x1="197.45" x2="300.73" y1="303.37" y2="402.77" xlink:href="#b"></linearGradient><linearGradient id="s" x1="177.26" x2="342.08" y1="380.49" y2="380.49" xlink:href="#d"></linearGradient><linearGradient id="t" x1="241.23" x2="352.48" y1="305.85" y2="285.44" xlink:href="#b"></linearGradient><linearGradient id="u" x1="293.19" x2="315.12" y1="296.68" y2="296.68" xlink:href="#a"></linearGradient><linearGradient id="v" x1="259.84" x2="274.05" y1="246.04" y2="274.94" xlink:href="#a"></linearGradient><linearGradient id="w" x1="332.73" x2="344.41" y1="299.26" y2="299.26" xlink:href="#a"></linearGradient><linearGradient id="x" x1="362.5" x2="374.67" y1="316.77" y2="316.77" xlink:href="#a"></linearGradient><linearGradient id="y" x1="327.3" x2="345.77" y1="339.37" y2="339.37" xlink:href="#a"></linearGradient><linearGradient id="z" x1="248.93" x2="300.56" y1="416.95" y2="374.95" xlink:href="#d"></linearGradient><linearGradient id="A" x1="389.46" x2="387.11" y1="198.69" y2="219.27" gradientUnits="userSpaceOnUse"><stop offset="0" stop-color="#ecc4d7"></stop><stop offset=".42" stop-color="#efd4d1"></stop><stop offset=".59" stop-color="#f0dace"></stop><stop offset="1" stop-color="#f2eac9"></stop></linearGradient><linearGradient id="B" x1="991.56" x2="1034.16" y1="-215.09" y2="-215.09" gradientTransform="rotate(-11.02 2835.5 3276.64)" xlink:href="#a"></linearGradient><linearGradient id="C" x1="370.77" x2="488.44" y1="256.87" y2="440.02" xlink:href="#b"></linearGradient><linearGradient id="D" x1="370.99" x2="399.58" y1="299.19" y2="299.19" xlink:href="#a"></linearGradient><linearGradient id="E" x1="468.44" x2="524.33" y1="310.73" y2="395.62" xlink:href="#b"></linearGradient><linearGradient id="F" x1="454.84" x2="521.26" y1="359.24" y2="359.24" xlink:href="#b"></linearGradient><linearGradient id="G" x1="489.21" x2="530.86" y1="344.14" y2="411.1" xlink:href="#b"></linearGradient><linearGradient id="H" x1="422.41" x2="443.91" y1="324.64" y2="324.64" xlink:href="#a"></linearGradient><linearGradient id="I" x1="442.71" x2="454.84" y1="303.53" y2="303.53" xlink:href="#a"></linearGradient><linearGradient id="J" x1="511.95" x2="726.55" y1="278.36" y2="361.14" xlink:href="#d"></linearGradient><linearGradient id="K" x1="530.97" x2="567.05" y1="240.59" y2="240.59" xlink:href="#a"></linearGradient><linearGradient id="L" x1="566.59" x2="630.96" y1="301.98" y2="301.98" xlink:href="#a"></linearGradient><linearGradient id="M" x1="476.41" x2="556.38" y1="299.7" y2="310.96" xlink:href="#b"></linearGradient><linearGradient id="N" x1="463.37" x2="475.42" y1="217.38" y2="217.38" xlink:href="#d"></linearGradient><linearGradient id="O" x1="458.5" x2="473.9" y1="218.68" y2="218.68" xlink:href="#d"></linearGradient><linearGradient id="P" x1="467.44" x2="484.56" y1="214.96" y2="214.96" xlink:href="#d"></linearGradient><linearGradient id="Q" x1="438.7" x2="571.29" y1="374.17" y2="374.17" xlink:href="#b"></linearGradient><linearGradient id="R" x1="555.38" x2="557.67" y1="248.19" y2="246.81" xlink:href="#a"></linearGradient></defs><path fill="#68e1fd" d="M122.85 209.76c18.51-19.6 46.06-28.75 64.42-48.49 24.91-26.78 28.09-67.29 47.89-98 14-21.66 35.71-37.49 59.3-47.87A185.19 185.19 0 0 1 425 8.89c19.78 6.45 38.69 16.31 59.33 18.85 35.83 4.4 75.8-13.13 106.43 6 21 13.1 28.9 39.12 36.88 62.56 10.67 31.33 26.84 47.13 42.55 93 7.29 21.3 31.6 35.93 30.75 58.42-.23 6.2-2.17 12.62-6.74 16.8-3.67 3.36-8.59 4.92-13.34 6.37a1604.6 1604.6 0 0 1-507.4 68.82c-33.9-.87-54.28-6.45-63.92-39.05-9.34-31.57-11.06-65.11 13.31-90.9Z" opacity=".18"></path><path fill="#3f3d56" d="M521.67 139.4c.74-2.45 2.58-4.44 3.38-6.87.66-2 .58-4.16 1.11-6.19a13 13 0 0 1 6.09-7.63 22.07 22.07 0 0 1 9.55-2.72 31.74 31.74 0 0 1 20.25 5.31 28 28 0 0 1 11.58 17.29 44 44 0 0 0 1.37 6.57c.77 2.1 2.32 4.09 4.49 4.63l-.21 2.5a10.22 10.22 0 0 1 8 8c.62 3.33-.48 6.89.58 10.11 1 3 3.62 5.26 4 8.34a11.56 11.56 0 0 1-1.1 5.51q-2.33 6.06-5.06 11.94c-2.79-3-5.7-6-9.46-7.62-2.26-1-4.72-1.34-7-2.13-12.4-4.24-18.23-18.94-29.85-25-2.61-1.37-5.94-1.82-8.4-3.37-1.85-1.17-1.9-2.77-3-4.49-2.99-4.6-8.23-7.79-6.32-14.18Z"></path><path fill="#3f3d56" d="M528.72 167.99c.72 3.35 3.11 6.08 5.62 8.42 1.3 1.21 2.73 2.46 3.16 4.19a5.18 5.18 0 0 0 .5 1.64c.71 1 2.3.86 3.43.32a10.12 10.12 0 0 0 5.26-7 14.93 14.93 0 0 0-1-8.84A19.63 19.63 0 0 0 534 155.66c-6.14-1.83-6.08 8.58-5.28 12.33Z"></path><path fill="#1d2741" d="M823.92 316.09c1.37-12.82-15.11-19.4-28-19.83-26.92-.89-53.39 6-79.95 10.44-69.63 11.75-141 7.24-211.21 14.5-54.46 5.63-107.89 18.29-161.54 29.2-63 12.8-126.42 23.19-190 32.69-31.1 4.65-62.55 10.76-93.88 13.43-14.45 1.24-54.25-.84-59.23 19.87-1.19 4.93 4.94 8.16 9.83 9.48 40.38 10.94 80.81 21.88 122 29.37 26.73 4.87 53.85 8.3 79.72 16.59 22.63 7.26 44 18.13 66.56 25.54 38.21 12.55 78.91 14.88 119.07 17.1 10 .56 20 1.1 29.85-.55 12.68-2.13 24.44-7.81 36-13.43l343.25-166.83" opacity=".18"></path><path fill="url(#a)" d="m242 261.2 15.33-34.37s16.61-8 28.1-1.09 1.76 30.17 0 37.52-13.09 10.22-17.4 6.86-9.95 6.59-9.95 6.59Z" transform="translate(0 -78.76)"></path><path fill="url(#f)" d="m797.14 400.34-459 163.27a90.61 90.61 0 0 1-60.07.24L49 484.33a15.87 15.87 0 0 1-4.75-2.62A14.69 14.69 0 0 1 38.9 472a15.71 15.71 0 0 1-.12-1.95 14.9 14.9 0 0 1 12-14.9l21.53-4.53 232.06-48.89 252.84-53.28L662.81 366l77.08 12.84Z" transform="translate(0 -78.76)"></path><path fill="#68e1fd" d="M819 289.24a34.36 34.36 0 0 1-22.84 32.37l-459 163.27a90.61 90.61 0 0 1-60.07.24L48 405.57a15.87 15.87 0 0 1-4.75-2.62l-5.33-9.71-.12-.22V349.4l265.63-26.44 358.4-35.72 139.66-13.9a15.9 15.9 0 0 1 15.55 8.2"></path><path fill="url(#c)" d="M819 368a34.36 34.36 0 0 1-22.84 32.37l-459 163.27a90.61 90.61 0 0 1-60.07.24L48 484.33a15.87 15.87 0 0 1-4.75-2.62L37.92 472l-.12-.22v-43.62l265.63-26.44L661.83 366l139.66-13.9a15.9 15.9 0 0 1 15.55 8.2" transform="translate(0 -78.76)" style="isolation:isolate"></path><path fill="url(#d)" d="M818 360.33a34.3 34.3 0 0 1-20.88 20.95l-459 163.28a90.61 90.61 0 0 1-60.07.23L49 465.27a15.85 15.85 0 0 1-4.75-2.61l-5.33-9.72-.12-.22v-24.56l265.63-26.44L662.81 366l139.66-13.9a15.9 15.9 0 0 1 15.55 8.2" transform="translate(0 -78.76)" style="isolation:isolate"></path><path fill="#68e1fd" d="m810.18 274.52-472 168.5a90.55 90.55 0 0 1-60.07.23L49 363.73c-14.52-5-13.2-26 1.85-29.18l484.11-107.1a46.18 46.18 0 0 1 18.44-.32l244.39 43.21c1.88.33 14.2 3.53 12.39 4.18"></path><path fill="url(#g)" d="M532.47 264.59S511.88 289 504.32 297c-10.27 10.87-39.16 0-39.16 0l11.73 23.9 11.59 1.61 40.38-29Z" transform="translate(0 -78.76)"></path><path fill="#68e1fd" d="m459.54 211.62-1.04-2.82h4.87v-2.03h4.07v-1.98l6.88 2.13 10.24 2.48 2.72-1.19 32.01 7.66-.49 1.87-32.56 13.91-13.93-2.29-12.77-17.74zM335.9 191.44s4.9-27.77 6.18-36.88c2.33-16.7 8.8-22.45 15.56-23.36 27.81-3.72 35.16-4.52 65-.3 14.69 2.08 17.79 58.71 18.38 74.67a12.52 12.52 0 0 1-2.17 7.5l-10.41 7.43-3.08 26.13-75.21 3.95-.71-29.26-29.71-.68.89-22.66Z"></path><path fill="url(#e)" d="m349.45 300.08 4.36-62.69s29.74-.88 29.61 3.73-21.68 47.07-21.68 47.07Z" transform="translate(0 -78.76)" style="isolation:isolate"></path><path fill="url(#b)" d="M400.8 206.7a8 8 0 0 1 5.06.89s-3.7 16.16-17.46 22.39-16.19-15.7-16.19-15.7Z" transform="translate(0 -78.76)" style="isolation:isolate"></path><path fill="url(#h)" d="M312.78 274.59a2.43 2.43 0 0 0-1.17.19c-.84.47-.75 1.79-.12 2.52a7.94 7.94 0 0 0 2.44 1.51 1.48 1.48 0 0 1 .82.83 1.31 1.31 0 0 1-.12.82c-.86 2.08-3.37 2.81-5.53 3.43a51.3 51.3 0 0 0-9.47 3.79 1.59 1.59 0 0 0-.86.77c-.3.9 1 1.46 1.92 1.52a46.61 46.61 0 0 0 6.89 0c-.6.42-1.29 1-1.13 1.75s.86.95 1.5 1a6.47 6.47 0 0 1 1.92.21c1 .41 1.46 1.65 2.38 2.27a4.31 4.31 0 0 0 3 .41 30.09 30.09 0 0 0 5.72-1.25 8.22 8.22 0 0 0 3-1.52 8 8 0 0 0 2-3.71c.94-3 2.15-9-.47-11.57s-9.32-2.88-12.72-2.97Z" transform="translate(0 -78.76)"></path><path fill="#68e1fd" d="m258.07 197.95 22.32 36.13s7.17 12.91 15.61 11.16 16.34-12.32 16.34-12.32l11.21 11.52s-17.65 29.8-36.93 27.19c-10.73-1.45-33.73-23.77-33.73-23.77Z"></path><path fill="url(#i)" d="m258.07 276.71 22.32 36.13S287.56 325.75 296 324s16.34-12.32 16.34-12.32l11.21 11.52s-17.65 29.8-36.93 27.19c-10.73-1.45-33.73-23.77-33.73-23.77Z" transform="translate(0 -78.76)" style="isolation:isolate"></path><path fill="url(#j)" style="isolation:isolate" d="m67.72 330.75 440.48-89.44 248.06 47.04L361.5 426.18 67.72 330.75z"></path><path fill="#1d2741" d="M306.18 357.68c4.56 15.24 21.4 25.7 37.08 23 10.5-1.79 19.39-8.47 28.58-13.87a131.05 131.05 0 0 1 75-17.59c15.63 1.11 32.26 4.87 46.34-2 9.76-4.77 16.59-14 25.62-20 7.64-5.1 16.59-7.79 24.86-11.76 12.88-6.18 27.51-22.41 48.21-37.51 12.22-8.91 33.45-17.15 39.08-23.42-11.59-3.15-22.07 10.18-39.08 12-35.57 3.71-82.52 1.42-107.43 4.63-29.71 3.82-59.45 7.65-88.8 13.61-62.69 12.72-123.87 29.35-187 40.08-12.54 2.14-44.92 4-52.73 16.47-11.64 18.65 25.25 27.38 37.17 28.84 9.55 1.14 115.75-3.63 113.1-12.48Z" opacity=".18"></path><path fill="#25233a" d="M440.45 309.03s-13.41.48-15.88 3.84 2.51 6.13 2.51 6.13l26.79-10.92ZM431.88 247.86s7.06-.38 10.41 5.13 3.35 18.63 3.35 18.63-5.64 7.05-11.91 4.62-3.65-16.2-3.65-16.2Z"></path><path fill="url(#k)" d="M363.38 374.94 386 362.47l-.72-23.16s-26.42 9.91-26.86 11.24 4.96 24.39 4.96 24.39Z" transform="translate(0 -78.76)" style="isolation:isolate"></path><path fill="#68e1fd" d="M349 232.36s-19.07 44.24-13.19 56.88c3.38 7.26 11.89 9.47 18.51 10a10.46 10.46 0 0 0 10.87-7.24c4.71-14.81 16.22-43.4 22.48 5.9 1 8.1 28.79 4.2 33.32.24s14.9-28.47 14.9-28.47-2.19-7.65-6.54-9.63c0 0 5.81-21.75-3.32-25.18-.03.01-65.41 17.82-77.03-2.5Z"></path><path fill="url(#l)" d="M349 311.12s-19.07 44.24-13.19 56.88c3.38 7.26 11.89 9.47 18.51 10a10.46 10.46 0 0 0 10.87-7.24c4.71-14.81 16.22-43.4 22.48 5.9 1 8.1 28.79 4.2 33.32.24s14.9-28.47 14.9-28.47-2.19-7.65-6.54-9.63c0 0 5.81-21.75-3.32-25.18-.03.01-65.41 17.82-77.03-2.5Z" transform="translate(0 -78.76)" style="isolation:isolate"></path><path fill="#68e1fd" d="M250.46 271.62s82.86 22.8 98.19 30.11 18.73 8 18.73 8l-5.88 17.07-159.42-16.4Z"></path><path fill="url(#m)" d="M250.46 350.38s82.86 22.8 98.19 30.11 18.73 8 18.73 8l-5.88 17.07-159.42-16.4Z" transform="translate(0 -78.76)" style="isolation:isolate"></path><path fill="url(#n)" style="isolation:isolate" d="m363.81 320.04-31.08-7.83-16.87-21.7-68.33 21.7 3.04 4.56 110.93 9.98 2.31-6.71z"></path><path fill="#25233a" d="m146.59 366.53 59.29 19.09a2 2 0 0 0 1.33 0l.47-.18a2 2 0 0 0-.11-3.77l-59.76-18.9a1.93 1.93 0 0 0-1.3 0 2 2 0 0 0 .08 3.76Z"></path><path fill="#68e1fd" d="m604.87 251.89 74.68 14.42a10.18 10.18 0 0 0 5.75-.54l6-2.37a2.33 2.33 0 0 0-.43-4.47L619 245.5a13 13 0 0 0-6.49.43l-7.83 2.56a1.76 1.76 0 0 0 .19 3.4Z"></path><path fill="url(#o)" d="m604.87 330.65 74.68 14.42a10.18 10.18 0 0 0 5.75-.54l6-2.37a2.33 2.33 0 0 0-.43-4.47L619 324.26a13 13 0 0 0-6.49.43l-7.83 2.56a1.76 1.76 0 0 0 .19 3.4Z" transform="translate(0 -78.76)" style="isolation:isolate"></path><path fill="#68e1fd" d="m604.87 248.65 74.68 14.43a10.36 10.36 0 0 0 5.75-.54l6-2.37a2.33 2.33 0 0 0-.43-4.47L619 242.24a13.12 13.12 0 0 0-6.49.42l-7.85 2.58a1.76 1.76 0 0 0 .21 3.41ZM335.42 182.3s1.85-2.9 6.88-2.62 14.27 2.7 14.27 2.7l-32 68.12H309a3.77 3.77 0 0 1-3.41-5.38Z"></path><path fill="url(#p)" d="M335.42 261.06s1.85-2.9 6.88-2.62 14.27 2.7 14.27 2.7l-32 68.12H309a3.77 3.77 0 0 1-3.41-5.38Z" transform="translate(0 -78.76)" style="isolation:isolate"></path><path fill="#68e1fd" d="M338.77 182.3s1.86-2.9 6.89-2.62a69.88 69.88 0 0 1 10 1.68 3.5 3.5 0 0 1 2.39 4.91L329.2 247.8a4.69 4.69 0 0 1-4.25 2.7h-12.61a3.76 3.76 0 0 1-3.4-5.38Z"></path><path fill="url(#q)" d="M338.77 261.06s1.86-2.9 6.89-2.62a69.88 69.88 0 0 1 10 1.68 3.5 3.5 0 0 1 2.39 4.91l-28.85 61.53a4.69 4.69 0 0 1-4.25 2.7h-12.61a3.76 3.76 0 0 1-3.4-5.38Z" transform="translate(0 -78.76)" style="isolation:isolate"></path><path fill="#68e1fd" d="M179.72 309.91s-14.16-42.13 25-94.1c14.76-19.6 26.56-29.49 35.53-34.21 9.83-5.17 21.46 2.85 20.31 13.9-2.64 25.37-7.61 73.28-7.61 73.67s-59.25 48.86-73.23 40.74Z"></path><path fill="url(#r)" d="M226.08 288.19s-30.94 51.91-23.85 86c0 0 53.61-21.17 50.68-26.29s-2.41-59.74-2.41-59.74Z" transform="translate(0 -78.76)" style="isolation:isolate"></path><path fill="#68e1fd" d="M342.08 334.02a57.87 57.87 0 0 1-16 5.45c-1.73.32-3.47.56-5.21.72a324.24 324.24 0 0 1-38.37-34.59c-24.82 17.48-53.85 32.79-84 29.39a26.6 26.6 0 0 1-10.69-3.07 23 23 0 0 1-5.7-5.17c-2.57-3.17-4.6-7-4.82-10.3-.47-7 5.39-9.32 11.13-12.48a523.68 523.68 0 0 1 86.25-37.79c6.56-2.2 13.8-4.26 20.27-1.79s10.45 8.75 14 14.66Z"></path><path fill="url(#s)" d="M342.08 412.78a57.87 57.87 0 0 1-16 5.45c-1.73.32-3.47.56-5.21.72a324.24 324.24 0 0 1-38.37-34.59c-24.82 17.48-53.85 32.79-84 29.39a26.6 26.6 0 0 1-10.69-3.07 23 23 0 0 1-5.7-5.17c-2.57-3.17-4.6-7-4.82-10.3-.47-7 5.39-9.32 11.13-12.48a523.68 523.68 0 0 1 86.25-37.79c6.56-2.2 13.8-4.26 20.27-1.79s10.45 8.75 14 14.66Z" transform="translate(0 -78.76)" style="isolation:isolate"></path><path fill="#68e1fd" d="M226.08 209.43S242 257.53 250 264.05s53-34.81 53-34.81v-16l-38.46 16.73s-2.05-40-5.89-42.48-27.78-5.25-32.57 21.94Z"></path><path fill="url(#t)" d="M226.08 288.19S242 336.29 250 342.81 303 308 303 308v-16l-38.46 16.73s-2.05-40-5.89-42.48-27.78-5.25-32.57 21.94Z" transform="translate(0 -78.76)" style="isolation:isolate"></path><path fill="url(#u)" d="M307.71 288.8a17.46 17.46 0 0 1 4.48-1c3.29-.42 4.59-1.29 7.9-1.17 3.65 0 .91 2.63-.14 3a9.48 9.48 0 0 0-3.05 1.37c-1.55 1.32-1.38 3.68-1.62 5.7a11.47 11.47 0 0 1-12.34 10.06 2.71 2.71 0 0 1-2.1-.93 3 3 0 0 1-.37-1.59c-.13-2.78-1.16-6.91.32-9.4 1.01-1.75 4.72-6.04 6.92-6.04Z" transform="translate(0 -78.76)"></path><path fill="#3f3d56" d="M247.9 140.99a10.76 10.76 0 0 0-4 6.59 47.61 47.61 0 0 0-.73 7.83 63.17 63.17 0 0 1-1.74 11.35 1.4 1.4 0 0 1 1-.34 15.8 15.8 0 0 1 .14 3.15l1.65-.27q0 3.87-.3 7.74c4.11-2.12 7.22-5.72 10.23-9.23a2.61 2.61 0 0 0 .45-.65 2.7 2.7 0 0 0 .07-1.2 8.54 8.54 0 0 1 .89-5.38c1-1.56 3.18-2.48 4.78-1.57 2.05 1.17 1.88 4.1 2.47 6.38a24.92 24.92 0 0 0 2.17-6.38 6.18 6.18 0 0 1 .76-2.36 4.92 4.92 0 0 1 1.73-1.36 19.17 19.17 0 0 1 13-1.83c2.45.54 4.92 1.57 7.39 1.1a3.91 3.91 0 0 1 1.69-.15c1 .24 1.74 1.48 2.74 1.24a2 2 0 0 0 1.14-1.21 14.23 14.23 0 0 0-1.36-14.2 23.27 23.27 0 0 0 5.12.75c-6.94-9.63-19.45-15.07-31.15-13.07a15.73 15.73 0 0 0-7.22 2.86 11.08 11.08 0 0 0-4 7.71c-.22 2.17-.61 1.53-2.47 1.34a6.74 6.74 0 0 0-4.45 1.16Z"></path><path fill="url(#v)" d="M257.14 241.84c0 .71.18 1.41.22 2.12.07 1.25-.26 2.64.45 3.68a4.26 4.26 0 0 0 1.7 1.24 1 1 0 0 0 .65.16.89.89 0 0 0 .58-.65 5.4 5.4 0 0 0 0-3 20.31 20.31 0 0 1-.6-2.89c-.06-.71.12-1.74-.38-2.35-1.18-1.42-2.63.44-2.62 1.69Z" transform="translate(0 -78.76)"></path><path fill="url(#w)" d="M341 288.88c-.69-.77-1.74-1.59-2.63-1.08s-.66 2-.24 3 .93 2.25 1.4 3.37a10.64 10.64 0 0 0-1.89-2.49 1.56 1.56 0 0 0-.87-.51 1.15 1.15 0 0 0-1.1.94 3.34 3.34 0 0 0 .15 1.56l1.14 4.4a7 7 0 0 0-2.49-2.26 1 1 0 0 0-1-.13c-.39.24-.36.81-.26 1.26a28.45 28.45 0 0 0 2.13 6.14c-.55-.57-1.35-1.19-2-.81s-.52 1.63-.14 2.45l2.2 4.8a2.31 2.31 0 0 0 1 1.28c1 .39 1.9-.66 2.42-1.57a69.85 69.85 0 0 0 4.37-9.21c.7-1.78 1.63-4.11 1.15-6s-2.1-3.73-3.34-5.14Z" transform="translate(0 -78.76)"></path><path fill="url(#x)" d="M362.5 323.86h8.02l4.15-11.65-7.29-2.53-4.88 14.18z"></path><path fill="#25233a" d="M386.82 291a11.36 11.36 0 0 1 3.14-3.33 4.1 4.1 0 0 1 4.34-.17 5.19 5.19 0 0 1 1.84 3.58c.61 3.83-.19 7.73-1.05 11.51q-2.74 12.13-6.24 24.07a2.1 2.1 0 0 1-2.72 1.83 54.11 54.11 0 0 1-13.74-2.67 2.86 2.86 0 0 1-1.67-1.05 3 3 0 0 1 .18-2.56c4.33-11.1 8.93-21.43 15.92-31.21Z"></path><path fill="url(#y)" d="m327.3 339.23 6.2 5.48 12.27-4.52-3.7-6.17-14.77 5.21z"></path><path fill="#25233a" d="m333.5 344.72 6.77 13.52L376 348.07s1.87-6.18-6.44-6.82-23.79-1.01-23.79-1.01Z"></path><path fill="url(#z)" d="m330.89 416.07-4.79 2.16c-1.73.32-3.47.56-5.21.72a324.24 324.24 0 0 1-38.37-34.59c-24.82 17.48-53.85 32.79-84 29.39a26.6 26.6 0 0 1-10.69-3.07 23 23 0 0 1-5.7-5.17c6.24 3.67 16.59 0 16.59 0s81.27-42 86-42.82 46.17 53.38 46.17 53.38Z" transform="translate(0 -78.76)" style="isolation:isolate"></path><path fill="url(#A)" d="M373.56 207.94s-.72 14.12 8.62 17.48 21.07-17.48 21.07-17.48-4.65-1.05-5.9-6.95c-6.07-28.42-16.77 4.83-23.79 6.95Z" transform="translate(0 -78.76)"></path><path fill="url(#B)" d="M356.77 194.2s2.55 26 16 29.38 22-22.09 22-22.09 9.61-26.34-5.15-26.4-37.43-7.95-32.85 19.11Z" transform="translate(0 -78.76)"></path><path fill="url(#C)" d="m428.45 299.26-23.88 8.16a5.88 5.88 0 0 1-7.54-3.88l-3.1-10.4a4.72 4.72 0 0 1 2.39-5.55L418 276.71l-3.77-39.32-64.74 62.69.27 11s3.48 7.82 22.4 9 54.64-6.45 54.64-6.45Z" transform="translate(0 -78.76)" style="isolation:isolate"></path><path fill="url(#D)" d="M396.35 292.08s-6-2.48-9.54-1.44-6.42 2.16-6.42 2.16a2.46 2.46 0 0 0 1.15 1.75c.76.54-4.62 2-8.17 2.82a3.1 3.1 0 0 0-2.3 3.69 8 8 0 0 0 6.88 6.23 76.3 76.3 0 0 0 11 .67c5-.32 10.63-7.34 10.63-7.34s-.65-7.62-3.23-8.54Z" transform="translate(0 -78.76)"></path><path fill="#3f3d56" d="M340.27 102.43a2.67 2.67 0 0 0 2.35.56 17.54 17.54 0 0 1-2.26-10.22c.85.94 2.42.69 3.48 0s1.85-1.74 3-2.36a9.86 9.86 0 0 1 3-.93 55.33 55.33 0 0 0 15-5.45c2.84-1.53 5.58-3.32 8.67-4.28 7.18-2.21 15.39.76 20.29 6.46a42.67 42.67 0 0 0 2.85 3.3 25.79 25.79 0 0 1 2.49 2.3c1.75 2.12 1.84 5.14 1.61 7.88a48.62 48.62 0 0 1-6.12 19.79l.36-9c.06-1.59-.23-3.68-1.8-4-1.28-.26-2.37 1-2.91 2.17a10.59 10.59 0 0 0-.83 5.82c-2.18-1.24-3.51-3.51-5.07-5.48s-3.72-3.83-6.22-3.65c-2.79.21-4.68 2.79-6.88 4.53a12.87 12.87 0 0 1-9.15 2.65 4.59 4.59 0 0 0-2.15 0c-1.86.7-1.93 2.43-4.09 2.3-1.26-.07-4.49-2.31-5.68-3a27.06 27.06 0 0 1-9.94-9.39Z"></path><path fill="#68e1fd" d="M557.25 276.75s-15.09 10.73-38.45 4.88-35.07-10-35.07-10l-25.65 31.39-.13.15-3.11-1.19-10.07-3.83s11.18-40.36 17.8-47.55c2-2.15 9.58-11.62 21.46-8.55 13.76 3.56 41.2 7.53 60.09 11.72 16.88 3.73 13.13 22.98 13.13 22.98Z"></path><path fill="url(#E)" d="M557.25 355.51s-15.09 10.73-38.45 4.88-35.07-10-35.07-10l-25.65 31.39-.13.15-3.11-1.19-10.07-3.83s11.18-40.36 17.8-47.55c2-2.15 9.58-11.62 21.46-8.55 13.76 3.56 41.2 7.53 60.09 11.72 16.88 3.73 13.13 22.98 13.13 22.98Z" transform="translate(0 -78.76)" style="isolation:isolate"></path><path fill="url(#F)" d="m521.26 344.68-2.46 15.71c-23.36-5.85-35.07-10-35.07-10l-25.65 31.39-3.24-1 26.33-44Z" transform="translate(0 -78.76)" style="isolation:isolate"></path><path fill="#68e1fd" d="m544.12 253.76-114.18 61.66s7.16 5.71 8.76 8.44 8.85 4.65 8.85 4.65 67.69-21 74.76-27.25c0 0 17-2 25-3.35s16.92-9.69 21.39-21.16 2.63-24.75 2.63-24.75l-27.17 1.76Z"></path><path fill="url(#G)" d="m544.12 332.52-114.18 61.66s7.16 5.71 8.76 8.44 8.85 4.65 8.85 4.65 67.69-21 74.76-27.25c0 0 17-2 25-3.35s16.92-9.69 21.39-21.16 2.63-24.75 2.63-24.75l-27.17 1.76Z" transform="translate(0 -78.76)" style="isolation:isolate"></path><path fill="url(#H)" d="m431.59 316.77-9.18 4.53 11.32 11.2 10.18-5.22-12.32-10.51z"></path><path fill="#25233a" d="M424.53 321.3s-12.65-17.23-16.81-15.55-5.43 9-5.11 10c.24.72 11.32 16.16 16.8 23.77a5.5 5.5 0 0 0 7.37 1.46l5.92-3.66 2.65-5.63Z"></path><path fill="url(#I)" d="m445.8 298.53-3.09 9.99 12.13-6.55-9.04-3.44z"></path><path fill="#68e1fd" d="M536.43 256.24 523 249.56s16.84-17.2 5.46-31.3c0 0-7.44-5.82-6.12-12.69.84-4.35 6.29-13.57 10.16-19.74a16.44 16.44 0 0 1 10.84-7.41l23.66-4.53s9.63 1.17 13.46 13.31-9.19 64.8-9.19 64.8Z"></path><path fill="url(#J)" d="M536.43 335 523 328.32s16.84-17.2 5.46-31.3c0 0-7.44-5.82-6.12-12.69.84-4.35 6.29-13.57 10.16-19.74a16.44 16.44 0 0 1 10.84-7.41l23.66-4.53s9.63 1.17 13.46 13.31-9.19 64.8-9.19 64.8Z" transform="translate(0 -78.76)" style="isolation:isolate"></path><path fill="url(#K)" d="M567.05 252.68s-17.52 18.91-23.71 15.2a5 5 0 0 1-2.76-4.36c0-3.18 2.76-6.31 2.76-6.31s4.54-9.14-3.36-7.83h-.14c-8.09 1.43-10.82-18.21-7.47-30.52s24.67-2.77 25.25 1.46 9.43 32.36 9.43 32.36Z" transform="translate(0 -78.76)"></path><path fill="#3f3d56" d="M538.53 130.54c2.31.85 3.51 3.31 4.79 5.41a29.19 29.19 0 0 0 13.93 11.89c2.61 1.06 5.65 1.71 8.17.45a24.58 24.58 0 0 1-2.9-9.1 40.42 40.42 0 0 0-.65-5.51c-1.36-5.35-6.42-8.91-11.48-11.09a22.2 22.2 0 0 0-8.94-2.12 10.82 10.82 0 0 0-8.23 3.57 11.09 11.09 0 0 0-2.22 5.2c-.34 2-.89 6.5 1.47 4.46 1.97-1.72 2.53-4.46 6.06-3.16Z"></path><path fill="#3f3d56" d="M555.17 154.24c.92-1.12 1.89-2.19 2.9-3.23.38-.39.93-.8 1.41-.55a1.15 1.15 0 0 1 .43.52 5.1 5.1 0 0 1-3.4 7.31c2.28.42-3.54 11.2 5.7 18.34 8.64 6.67 13.74.75 15.5.88.28-4.21-11.13-20.71-11.29-24.93a7.85 7.85 0 0 0-.8-3.78c-1.16-2-5.2-4.53-7.39-2.81-1.96 1.51-2.41 6.04-3.06 8.25Z"></path><path fill="url(#L)" d="M580.67 262.61a6.64 6.64 0 0 0-11.37-.25 15.15 15.15 0 0 0-2.3 12.05c2.6 10.56 25 34.17 25 34.17l17 30.73s-4.2 10.35 2.5 2.32c3.31-3.95 11.14-4.58 15.45-4.61a4 4 0 0 0 4-3.72c0-.6-.12-1-.58-1-1.55.16-10.86-.93-10.86-.93l-8.31 1.94s-10.92-30.49-11.44-31.05-10.42-24.64-19.09-39.65Z" transform="translate(0 -78.76)"></path><path fill="#68e1fd" d="m458.5 211.62 14.42 20 19.74 2.42s15.7-9.59 18.87-11.23 9.73-4.59 9.73-4.59l-31.38-6.64-14.46 16.38-3.11 1.36-12.78-17.74Z"></path><path fill="url(#M)" d="m458.5 290.38 14.42 20 19.74 2.42s15.7-9.59 18.87-11.23 9.73-4.59 9.73-4.59l-31.38-6.64-14.46 16.38-3.11 1.36-12.78-17.74Z" transform="translate(0 -78.76)" style="isolation:isolate"></path><path fill="#68e1fd" d="m463.37 206.77 10.06 19.48.63 1.43 1.36.31-7.98-21.22h-4.07zM458.5 208.8l14.42 19.76h.98l-10.53-19.76h-4.87zM467.44 204.79l7.98 20.34 9.14-15.73-17.12-4.61z"></path><path fill="url(#N)" style="isolation:isolate" d="m463.37 206.77 10.06 19.48.63 1.43 1.36.31-7.98-21.22h-4.07z"></path><path fill="url(#O)" style="isolation:isolate" d="m458.5 208.8 14.42 19.76h.98l-10.53-19.76h-4.87z"></path><path fill="url(#P)" style="isolation:isolate" d="m467.44 204.79 7.98 20.34 9.14-15.73-17.12-4.61z"></path><path fill="url(#Q)" d="M438.7 402.62s58.75-21 82.62-31.3a62.54 62.54 0 0 1 14.15-4.25c5.87-1 14.17-3 19.7-6.76 9.34-6.36 16.12-19.24 16.12-19.24s.25 28.94-24 35.6l-25 3.35s-8.72 5.08-24.61 10.61-50.15 16.64-50.15 16.64-6.78-2.23-7.25-2.71-1.58-1.94-1.58-1.94Z" transform="translate(0 -78.76)" style="isolation:isolate"></path><path fill="url(#R)" d="M540.58 263.52c0-3.18 2.76-6.31 2.76-6.31s4.54-9.14-3.36-7.83c12.85-2.11 11.29-10.55 14.32-2.88 5.08 12.86-13.11 16.94-13.72 17.02Z" transform="translate(0 -78.76)"></path></svg>