<svg height="24" viewBox="0 0 24 24" width="24" xmlns="http://www.w3.org/2000/svg"><g fill="none" fill-rule="evenodd"><path d="m0 0h24v24h-24z" fill-rule="nonzero"/><path d="m16.5523 22.1325c-1.4409-.053-5.5216-.6164-9.79496-4.8898-4.27339-4.2734-4.83679-8.35407-4.88981-9.79502-.0808-2.19546 1.601-4.32865 3.54461-5.16162.45606-.19546 1.00845-.15969 1.44513.15884 1.59879 1.16622 2.70343 2.92946 3.65173 4.31677.4284.62669.326 1.48234-.2559 1.98606l-1.95114 1.44907c-.19339.1436-.25769.4046-.1417.6157.44145.8036 1.22791 1.9994 2.12784 2.8994.901.9009 2.1533 1.7381 3.0121 2.2293.2227.1274.5028.0536.6436-.1609l1.2693-1.9334c.4867-.6478 1.3957-.7893 2.0564-.332 1.4075.9741 3.0493 2.0588 4.2515 3.5984.3415.4374.3923 1.0094.1886 1.4848-.8368 1.9526-2.9544 3.6155-5.1573 3.5344z" fill="#09244b"/></g></svg>