<svg height="32" viewBox="0 0 32 32" width="32" xmlns="http://www.w3.org/2000/svg"><path d="m14.057 31.88c-2.854-.37-5.792-1.594-7.932-3.307-4.818-3.844-7.005-9.917-5.755-15.948.536-2.604 1.932-5.344 3.719-7.318 1.318-1.484 2.906-2.698 4.677-3.583 2.354-1.193 4.604-1.729 7.26-1.729 1.906 0 3.438.25 5.193.849 4.672 1.604 8.344 5.271 9.948 9.943.938 2.75 1.109 5.677.51 8.578-.479 2.292-1.714 4.87-3.234 6.734-.625.771-2.063 2.146-2.818 2.703-2.26 1.677-4.917 2.74-7.708 3.078-.823.104-3.063.099-3.859 0zm4.36-1.338c3.896-.651 7.375-2.828 9.672-6.047 2.703-3.797 3.427-8.891 1.901-13.333-.359-1.042-1.25-2.781-1.901-3.698-.724-1.026-2.516-2.823-3.547-3.547-1-.708-2.703-1.568-3.865-1.948-4.25-1.411-8.906-.818-12.667 1.615-1.745 1.146-3.24 2.641-4.385 4.385-2.432 3.755-3.026 8.417-1.615 12.661.385 1.161 1.245 2.87 1.948 3.87.729 1.026 2.521 2.823 3.547 3.547.922.646 2.656 1.536 3.698 1.901 2.302.786 4.766.99 7.214.594zm-5.542-5.365c-.75-.115-1.469-.375-2.109-.771-.578-.37-4.943-4.646-5.156-5.047-.245-.458.182-1.292.792-1.547l.286-.12-.88-.896c-.484-.495-.943-1.021-1.016-1.167-.172-.333-.177-1.047-.016-1.365.068-.13.229-.328.354-.438.214-.177.234-.24.214-.688-.026-.396.01-.552.182-.849.25-.427.766-.714 1.271-.719.281 0 .354-.036.474-.245.313-.547 1.208-.745 1.891-.411l.37.177.182-.177c.25-.229.75-.432 1.078-.432.656 0 1.583.755 1.583 1.286 0 .635-.578.745-1.151.219-.38-.354-.573-.391-.729-.141-.078.12.109.344 1.229 1.474 1.12 1.125 1.323 1.365 1.323 1.578-.021.339-.292.609-.63.62-.203 0-.536-.292-2.073-1.823-1.568-1.563-1.854-1.813-1.979-1.734-.339.214-.224.37 1.609 2.208.995 1 1.813 1.885 1.813 1.969 0 .172-.156.49-.286.573-.104.047-.224.068-.339.063-.214.005-.542-.292-2.286-2.031-1.75-1.74-2.063-2.021-2.188-1.943-.344.219-.229.37 1.766 2.375 1.089 1.089 2 2.063 2.026 2.167.057.188-.068.516-.234.63-.109.047-.229.068-.349.063-.214 0-.484-.234-1.927-1.677-1.391-1.391-1.714-1.677-1.891-1.661-.5.057-.323.281 2.26 2.87 2.24 2.245 2.526 2.563 2.526 2.797 0 .182-.068.318-.224.438-.401.318-.557.245-1.568-.734-.516-.495-1.047-.974-1.188-1.063-.255-.156-.901-.224-1.021-.099-.042.036.911 1.042 2.115 2.234 2.005 1.984 2.234 2.188 2.823 2.469 1.135.547 2.359.552 3.495.01 1.682-.802 2.615-2.75 2.156-4.516-.229-.88-.516-1.302-1.672-2.495-1.333-1.365-1.641-1.74-1.969-2.396-.365-.734-.521-1.448-.521-2.339 0-.964.099-1.401.526-2.302.406-.859 1.255-1.76 2.094-2.224 1.646-.917 3.813-.839 5.385.188.313.203 1.443 1.266 2.849 2.677 2.089 2.094 2.328 2.365 2.328 2.604 0 .568-.464 1.198-.979 1.328-.193.052-.156.104.719.995.51.516.984 1.073 1.057 1.245.245.589.135 1.161-.313 1.63-.229.24-.26.323-.266.802-.005.422-.052.599-.219.839-.271.401-.729.646-1.188.651-.323 0-.385.031-.547.276-.365.563-1.313.76-1.927.396l-.307-.182-.219.214c-.484.464-1.266.526-1.859.146-.479-.302-.833-.724-.833-.99 0-.234.339-.62.547-.62.198 0 .464.156.766.438.302.286.563.286.604-.005.021-.156-.229-.453-1.24-1.469-1.063-1.073-1.266-1.318-1.266-1.526-.005-.115.021-.229.063-.339.115-.172.438-.292.635-.24.104.026.984.839 1.948 1.802.969.969 1.818 1.76 1.896 1.76.214 0 .354-.214.255-.396-.047-.083-.865-.922-1.813-1.87-1.484-1.479-1.724-1.755-1.724-1.974-.005-.115.016-.234.063-.344.089-.13.401-.286.578-.286.078 0 1.057.911 2.177 2.026 2.052 2.042 2.203 2.156 2.417 1.818.078-.125-.203-.443-1.943-2.188-1.797-1.802-2.036-2.073-2.036-2.307 0-.161.073-.328.188-.432.38-.359.495-.286 2.344 1.552 1.75 1.745 1.906 1.859 2.12 1.526.078-.125-.276-.51-2.448-2.688-2.365-2.375-2.536-2.568-2.536-2.844 0-.417.24-.615.703-.583.083.005.583.427 1.099.932.521.505 1.083.979 1.25 1.052.328.135.708.156.87.052.156-.099-4.167-4.354-4.729-4.651-2.031-1.099-4.573-.255-5.547 1.844-.271.578-.307.75-.344 1.495-.031.703-.005.922.146 1.37.271.797.505 1.125 1.719 2.365 1.313 1.344 1.563 1.651 1.896 2.37.938 2 .542 4.313-1.005 5.854-1.177 1.182-2.781 1.734-4.37 1.516z"/></svg>